<svg width="21" height="14" viewBox="0 0 21 14" fill="none" xmlns="http://www.w3.org/2000/svg">
<path fill-rule="evenodd" clip-rule="evenodd" d="M1.88672 0H19.1133C20.1536 0 21 0.82075 21 1.82955V12.1705C21 13.1793 20.1536 14 19.1133 14H1.88672C0.846398 14 0 13.1793 0 12.1705V1.82955C0 0.82075 0.846398 0 1.88672 0ZM5.08594 7C5.90014 7 6.5625 6.35771 6.5625 5.56818V4.61364C6.5625 3.82411 5.90014 3.18182 5.08594 3.18182H4.10156C3.28736 3.18182 2.625 3.82411 2.625 4.61364V5.56818C2.625 6.35771 3.28736 7 4.10156 7H5.08594ZM14.9994 8.81801C14.8571 8.81801 14.7139 8.77339 14.5935 8.68139C14.3089 8.4638 14.26 8.06368 14.4844 7.78766C14.6684 7.56143 14.7656 7.28903 14.7656 7C14.7656 6.71097 14.6684 6.43857 14.4845 6.2123C14.2601 5.93632 14.309 5.53616 14.5936 5.31857C14.8782 5.10105 15.2908 5.14834 15.5152 5.42436C15.8782 5.87093 16.0781 6.43049 16.0781 7C16.0781 7.56951 15.8782 8.12907 15.5152 8.5756C15.3857 8.73489 15.1935 8.81801 14.9994 8.81801ZM16.6288 10.3978C16.8087 10.3978 16.9878 10.3265 17.1174 10.1864C17.9283 9.31008 18.375 8.17843 18.375 7C18.375 5.82157 17.9283 4.68992 17.1174 3.81357C16.8753 3.55198 16.4604 3.53027 16.1906 3.76497C15.9209 3.99966 15.8984 4.40201 16.1405 4.66359C16.7351 5.30608 17.0625 6.13582 17.0625 7C17.0625 7.86418 16.7351 8.69392 16.1405 9.33641C15.8984 9.59795 15.9209 10.0003 16.1906 10.235C16.316 10.3441 16.4726 10.3978 16.6288 10.3978Z" fill="white"/>
</svg>
