<svg width="18" height="18" viewBox="0 0 18 18" fill="none" xmlns="http://www.w3.org/2000/svg">
<path fill-rule="evenodd" clip-rule="evenodd" d="M0 5.78V0H5.78V5.78H0ZM1.36 4.42H4.42V1.36H1.36V4.42Z" fill="white" fill-opacity="0.6"/>
<rect x="2.20996" y="2.20996" width="1.36" height="1.36" fill="white" fill-opacity="0.6"/>
<path fill-rule="evenodd" clip-rule="evenodd" d="M11.6281 5.78V0H17.4081V5.78H11.6281ZM12.9881 4.42H16.0481V1.36H12.9881V4.42Z" fill="white" fill-opacity="0.6"/>
<rect x="13.838" y="2.20996" width="1.36" height="1.36" fill="white" fill-opacity="0.6"/>
<path fill-rule="evenodd" clip-rule="evenodd" d="M0 17.4081V11.6281H5.78V17.4081H0ZM1.36 16.0481H4.42V12.9881H1.36V16.0481Z" fill="white" fill-opacity="0.6"/>
<rect x="2.20996" y="13.838" width="1.36" height="1.36" fill="white" fill-opacity="0.6"/>
<rect x="1.35999" y="6.698" width="1.36" height="1.36" fill="white" fill-opacity="0.6"/>
<path d="M4.07997 9.41798V8.05798H2.71997V9.41798H4.04597V10.778H5.40597V9.41798H4.07997Z" fill="white" fill-opacity="0.6"/>
<rect x="9.52002" y="2.61804" width="1.36" height="1.36" fill="white" fill-opacity="0.6"/>
<rect x="6.80005" y="1.35999" width="1.36" height="2.618" fill="white" fill-opacity="0.6"/>
<rect x="8.16003" width="1.36" height="1.36" fill="white" fill-opacity="0.6"/>
<path d="M8.16005 3.97803V5.33803H6.80005V6.69803H9.52005V3.97803H8.16005Z" fill="white" fill-opacity="0.6"/>
<path d="M9.52005 12.07V10.744H8.16005V8.05798H6.80005V10.778H8.16005V12.104H9.52005V13.43H12.24V12.07H9.52005Z" fill="white" fill-opacity="0.6"/>
<rect x="9.52002" y="6.698" width="1.36" height="2.72" fill="white" fill-opacity="0.6"/>
<path fill-rule="evenodd" clip-rule="evenodd" d="M16.048 6.698V8.024H17.408V10.744H13.6V9.418H12.24V8.058H13.566V6.698H16.048ZM13.6 9.384H16.048V8.058H13.6V9.384Z" fill="white" fill-opacity="0.6"/>
<rect x="16.048" y="12.0699" width="1.36" height="2.72" fill="white" fill-opacity="0.6"/>
<rect x="10.88" y="9.41797" width="1.36" height="1.36" fill="white" fill-opacity="0.6"/>
<rect x="12.24" y="13.4301" width="1.36" height="1.36" fill="white" fill-opacity="0.6"/>
<rect x="13.6" y="12.0699" width="1.36" height="1.36" fill="white" fill-opacity="0.6"/>
<path d="M13.6 14.79V17.408H14.96V16.15H16.048V14.79H13.6Z" fill="white" fill-opacity="0.6"/>
<rect x="6.80005" y="12.104" width="1.36" height="2.584" fill="white" fill-opacity="0.6"/>
<path d="M10.88 16.048V14.688H8.16003V17.408H9.52003V16.048H10.846V17.408H12.206V16.048H10.88Z" fill="white" fill-opacity="0.6"/>
<rect x="4.07996" y="6.698" width="2.72" height="1.36" fill="white" fill-opacity="0.6"/>
<rect y="8.05798" width="1.36" height="2.72" fill="white" fill-opacity="0.6"/>
</svg>
