<svg width="14" height="16" viewBox="0 0 14 16" fill="none" xmlns="http://www.w3.org/2000/svg">
<path fill-rule="evenodd" clip-rule="evenodd" d="M4 7.99994C4 6.34579 5.34579 5 7.00006 5C8.65421 5 10 6.34579 10 7.99994C10 9.65421 8.65421 11 7.00006 11C5.34579 11 4 9.65421 4 7.99994ZM6.63199 9.58418L8.78119 7.43498C8.96162 7.25455 8.96162 6.96204 8.78119 6.78173C8.60076 6.6013 8.30825 6.6013 8.12794 6.78173L6.30524 8.6043L5.81056 8.10962C5.63013 7.92918 5.33762 7.92918 5.15731 8.10962C4.97688 8.29005 4.97688 8.58256 5.15731 8.76287L5.97862 9.58418C6.06883 9.67451 6.18704 9.71956 6.30524 9.71956C6.42345 9.71956 6.54177 9.67439 6.63199 9.58418Z" fill="white"/>
<path fill-rule="evenodd" clip-rule="evenodd" d="M13.9832 4.32876L13.9837 4.34121C14.0203 6.2206 14.0658 8.55958 13.2603 10.6849C12.8187 11.8505 12.1504 12.8637 11.2741 13.6965C10.2766 14.6447 8.9702 15.3978 7.3914 15.9352C7.33972 15.9528 7.28591 15.967 7.23148 15.9777C7.15484 15.9926 7.07745 16 7.00018 16C6.92292 16 6.84565 15.9926 6.76889 15.9777C6.71445 15.967 6.66102 15.9529 6.60959 15.9354C5.02891 15.399 3.72116 14.6462 2.72273 13.698C1.84609 12.8654 1.17779 11.8524 0.736526 10.6871C-0.0659827 8.56813 -0.0203257 6.23354 0.0164256 4.35769L0.0171782 4.32876C0.0243278 4.17397 0.0292196 4.01138 0.0319791 3.83169C0.0454002 2.94937 0.766128 2.21963 1.67262 2.17044C3.56287 2.06765 5.02514 1.4678 6.27456 0.282623L6.28522 0.272735C6.69287 -0.0909117 7.30761 -0.0909117 7.71514 0.272735L7.7258 0.282623C8.97522 1.4678 10.4375 2.06765 12.3277 2.17031C13.2344 2.21963 13.955 2.94937 13.9684 3.83157C13.9713 4.01247 13.976 4.17507 13.9832 4.32876ZM2.90272 8.00026C2.90272 10.199 4.74066 11.9877 6.99993 11.9877C9.25907 11.9877 11.0971 10.199 11.0971 8.00026C11.0971 5.80153 9.25907 4.01284 6.99993 4.01284C4.74066 4.01284 2.90272 5.80153 2.90272 8.00026Z" fill="white"/>
</svg>
