<svg width="20" height="14" viewBox="0 0 20 14" fill="none" xmlns="http://www.w3.org/2000/svg">
<path d="M9.57126 4.94849C7.30126 4.94849 5.22486 6.10289 4.01726 8.03609C3.72486 8.50449 3.86726 9.12129 4.33566 9.41409C4.80366 9.70609 5.42086 9.56409 5.71366 9.09529C6.55326 7.75089 7.99566 6.94849 9.57126 6.94849C11.1469 6.94849 12.5889 7.75089 13.4289 9.09529C13.6185 9.39929 13.9445 9.56609 14.2777 9.56609C14.4589 9.56609 14.6417 9.51689 14.8065 9.41409C15.2749 9.12169 15.4173 8.50489 15.1249 8.03609C13.9177 6.10289 11.8417 4.94849 9.57126 4.94849Z" fill="white" fill-opacity="0.6"/>
<path d="M18.9904 5.62804C16.946 2.35324 13.4248 0.398438 9.57122 0.398438C5.71762 0.398438 2.19682 2.35324 0.152021 5.62804C-0.140379 6.09644 0.0020214 6.71324 0.470421 7.00564C0.939221 7.29764 1.55602 7.15564 1.84842 6.68724C3.52522 4.00164 6.41242 2.39844 9.57122 2.39844C12.73 2.39844 15.6172 4.00164 17.294 6.68724C17.4836 6.99084 17.8096 7.15764 18.1428 7.15764C18.3236 7.15764 18.5068 7.10884 18.6716 7.00564C19.1404 6.71284 19.2828 6.09644 18.9904 5.62804Z" fill="white" fill-opacity="0.6"/>
<circle cx="9.57126" cy="11.498" r="1.6456" fill="white" fill-opacity="0.6"/>
</svg>
